<svg xmlns="http://www.w3.org/2000/svg" id="Layer_1" width="32" height="32" x="0" y="0" version="1.0" viewBox="0 0 32 32" xml:space="preserve"><path style="line-height:normal;text-indent:0;text-align:start;text-decoration-line:none;text-decoration-style:solid;text-decoration-color:#fafafa;text-transform:none;block-progression:tb;white-space:normal;isolation:auto;mix-blend-mode:normal;solid-color:#fafafa;solid-opacity:1" id="path6705-0" fill="#fafafa" fill-opacity="1" fill-rule="evenodd" stroke="none" stroke-dasharray="none" stroke-dashoffset="0" stroke-linecap="round" stroke-linejoin="round" stroke-miterlimit="4" stroke-opacity="1" stroke-width="1" d="M 15.265625 0.140625 A 0.50005 0.50005 0 0 0 14.818359 0.46679688 L 14.066406 2.4980469 L 13.0625 2.4980469 L 12.957031 2.4980469 A 0.50005 0.50005 0 0 0 12.884766 2.5039062 C 12.881866 2.5040243 12.867247 2.5038916 12.867188 2.5039062 C 12.867135 2.5039187 12.858522 2.5074525 12.857422 2.5078125 A 0.50005 0.50005 0 0 0 12.744141 2.5449219 C 11.519427 2.7131272 10.648377 3.0970497 10.076172 3.5820312 C 9.4699987 4.0958032 9.178722 4.6922194 9.0019531 5.0917969 C 8.9691108 5.166037 8.7173251 5.5095254 8.3847656 5.8632812 C 8.0522062 6.2170371 7.6345749 6.6208657 7.2265625 6.9980469 C 6.4105378 7.7524093 5.6386719 8.4003906 5.6386719 8.4003906 A 0.50005 0.50005 0 0 0 5.6074219 8.4296875 C 5.1979893 8.8382671 5.027572 9.4014926 5.0058594 9.9648438 C 4.9841468 10.528195 5.110678 11.109152 5.3691406 11.625 C 5.6276032 12.140848 6.0271295 12.601038 6.5820312 12.841797 C 7.136933 13.082556 7.8284447 13.063578 8.515625 12.720703 L 10.765625 11.599609 C 11.73838 11.487913 12.542966 11.41323 13.253906 11.283203 C 12.271953 13.014047 10.756591 14.506899 9.5722656 16.175781 C 8.8561997 17.184819 8.3227286 18.31659 8.3398438 19.650391 C 8.3569588 20.984192 8.9181136 22.470619 10.224609 24.208984 A 0.50005 0.50005 0 0 0 10.625 24.408203 L 11.291016 24.408203 L 11.291016 24.578125 L 9.9003906 24.578125 C 9.2983872 24.578125 8.7988281 25.077684 8.7988281 25.679688 L 8.7988281 27.085938 C 8.7988281 27.125983 8.8179615 27.160197 8.8222656 27.199219 L 7.9492188 27.199219 C 6.8428568 27.199219 5.9335938 28.102266 5.9335938 29.207031 L 5.9335938 30.132812 C 5.9335938 31.237579 6.8428567 32.140625 7.9492188 32.140625 L 25.023438 32.140625 C 26.1298 32.140625 27.039062 31.237578 27.039062 30.132812 L 27.039062 29.207031 C 27.039062 28.102266 26.1298 27.199219 25.023438 27.199219 L 24.111328 27.199219 C 24.115632 27.160197 24.134766 27.125983 24.134766 27.085938 L 24.134766 25.679688 C 24.134766 25.077683 23.635207 24.578125 23.033203 24.578125 L 21.617188 24.578125 L 21.617188 24.408203 L 22.283203 24.408203 A 0.50005 0.50005 0 0 0 22.783203 23.908203 C 22.783203 22.867591 23.196158 21.198506 23.667969 19.367188 C 24.139779 17.535868 24.662968 15.523724 24.841797 13.654297 C 25.299455 8.8700213 23.07408 5.1597704 19.007812 3.1308594 A 0.50005 0.50005 0 0 0 18.970703 3.1132812 L 17.626953 2.578125 L 15.666016 0.3125 A 0.50005 0.50005 0 0 0 15.265625 0.140625 z M 15.462891 1.6054688 L 16.949219 3.3242188 A 0.50005 0.50005 0 0 0 17.142578 3.4609375 L 18.572266 4.03125 C 22.336072 5.913524 24.27006 9.1244021 23.845703 13.560547 C 23.67815 15.312109 23.171167 17.287286 22.699219 19.119141 C 22.276545 20.759736 21.957932 22.186431 21.878906 23.408203 L 21.117188 23.408203 A 0.50005 0.50005 0 0 0 20.617188 23.908203 L 20.617188 24.570312 L 12.291016 24.570312 L 12.291016 23.908203 A 0.50005 0.50005 0 0 0 11.791016 23.408203 L 10.90625 23.408203 C 9.8033433 21.882267 9.3528822 20.654769 9.3398438 19.638672 C 9.3261867 18.574349 9.7376145 17.668585 10.386719 16.753906 C 11.684927 14.924548 13.963474 13.193018 14.869141 10.542969 A 0.50005 0.50005 0 0 0 14.103516 9.9746094 C 13.565354 10.360146 12.369307 10.397439 10.564453 10.613281 A 0.50005 0.50005 0 0 0 10.400391 10.662109 L 8.0703125 11.826172 C 7.7612396 11.980386 7.518584 12.019132 7.3066406 12 C 8.2641745 11.398204 9.2464747 10.790992 10.103516 10.033203 A 0.50005 0.50005 0 0 0 9.7949219 9.1542969 A 0.50005 0.50005 0 0 0 9.4414062 9.2851562 C 8.5750855 10.051151 7.4906236 10.700939 6.4082031 11.388672 C 6.3597515 11.317146 6.3026046 11.259336 6.2617188 11.177734 C 6.0829931 10.821028 5.9911396 10.38387 6.0058594 10.001953 C 6.0205494 9.6208009 6.1415264 9.3119961 6.3144531 9.1386719 C 6.3144531 9.1386719 6.3144531 9.1367188 6.3144531 9.1367188 C 6.3446331 9.1112869 7.0842988 8.4904574 7.9042969 7.7324219 C 8.3225718 7.3457536 8.7539915 6.9310181 9.1132812 6.5488281 C 9.4725712 6.1666381 9.7565009 5.8566769 9.9160156 5.4960938 C 10.078178 5.1295327 10.282868 4.7165 10.722656 4.34375 C 11.160575 3.9725847 11.850129 3.6309638 13.035156 3.4980469 L 14.121094 3.4980469 L 14.414062 3.4980469 A 0.50005 0.50005 0 0 0 14.882812 3.171875 L 15.462891 1.6054688 z M 9.9003906 25.578125 L 23.033203 25.578125 C 23.098503 25.578125 23.134766 25.614384 23.134766 25.679688 L 23.134766 27.085938 C 23.134766 27.151238 23.098506 27.1875 23.033203 27.1875 L 9.9003906 27.1875 C 9.8350896 27.1875 9.7988281 27.15124 9.7988281 27.085938 L 9.7988281 25.679688 C 9.7988281 25.614387 9.8350901 25.578125 9.9003906 25.578125 z M 7.9492188 28.199219 L 25.023438 28.199219 C 25.595941 28.199219 26.039063 28.641827 26.039062 29.207031 L 26.039062 30.132812 C 26.039062 30.698017 25.59594 31.140625 25.023438 31.140625 L 7.9492188 31.140625 C 7.376716 31.140625 6.9335937 30.698017 6.9335938 30.132812 L 6.9335938 29.207031 C 6.9335938 28.641827 7.376716 28.199219 7.9492188 28.199219 z " baseline-shift="baseline" clip-rule="nonzero" color="#fafafa" color-interpolation="sRGB" color-interpolation-filters="linearRGB" color-rendering="auto" direction="ltr" display="inline" enable-background="accumulate" font-family="sans-serif" font-size="medium" font-stretch="normal" font-style="normal" font-variant="normal" font-weight="400" image-rendering="auto" letter-spacing="normal" opacity="1" overflow="visible" shape-rendering="auto" text-anchor="start" text-decoration="none" text-rendering="auto" visibility="visible" word-spacing="normal" writing-mode="lr-tb"/></svg>