<svg xmlns="http://www.w3.org/2000/svg" viewBox="0 0 64 64"><g data-name="Layer 2"><rect width="64" height="64" fill="none"/><path fill="none" stroke="#213f49" stroke-linejoin="round" stroke-width="2" d="M32,15.46,12.35,35.1a1.55,1.55,0,0,0,.19,2.17L26.73,51.46a1.55,1.55,0,0,0,2.17.19L48.54,32a5,5,0,0,0,1.39-2.87L52,14a1.86,1.86,0,0,0-2-2L34.86,14.08A5,5,0,0,0,32,15.46Z"/><rect width="18" height="16" x="21.24" y="25.76" fill="none" stroke="#213f49" stroke-linejoin="round" stroke-width="2" transform="rotate(-45 30.241 33.754)"/><path fill="none" stroke="#213f49" stroke-linejoin="round" stroke-width="2" d="M33.17,36.68H28.08c-4.11,0-4.11-5.09,0-5.09,0-4.11,5.09-4.11,5.09,0Z"/><circle cx="44.74" cy="19.26" r="2.5" fill="#fff" transform="rotate(-45 44.74 19.268)"/><circle cx="44.74" cy="19.26" r="2.5" fill="none" stroke="#213f49" stroke-linejoin="round" stroke-width="2" transform="rotate(-45 44.74 19.268)"/></g></svg>