<svg xmlns="http://www.w3.org/2000/svg" enable-background="new 0 0 64 64" viewBox="0 0 64 64"><path d="M4,62h56c0.552,0,1-0.448,1-1V13c0-0.552-0.448-1-1-1H38v2h5v6H21v-6h5v-2H4c-0.552,0-1,0.448-1,1v48
	C3,61.552,3.448,62,4,62z M5,54h6v6H5V54z M13,54h6v6h-6V54z M21,54h6v6h-6V54z M29,54h6v6h-6V54z M37,54h6v6h-6V54z M45,54h6v6h-6
	V54z M53,46h6v6h-6V46z M53,44v-6h6v6H53z M53,36v-6h6v6H53z M53,28v-6h6v6H53z M51,52H13V22h38V52z M11,28H5v-6h6V28z M11,30v6H5
	v-6H11z M11,38v6H5v-6H11z M11,46v6H5v-6H11z M53,60v-6h6v6H53z M59,20h-6v-6h6V20z M45,14h6v6h-6V14z M19,20h-6v-6h6V20z M11,14v6
	H5v-6H11z"/><path d="M35.966 8.639c-.071-.267-.2-.521-.371-.736-.771-.971-1.907-1.426-3.035-1.226-1.088.196-1.979.97-2.322 2.02-.26.795-.174 1.67.19 2.387l-3.652 4.043c-.456.504-.623 1.197-.449 1.854.175.657.665 1.175 1.311 1.387l4.678 1.531c.205.067.416.1.625.1.449 0 .891-.152 1.252-.443.529-.426.804-1.084.734-1.761l-.599-5.436C35.715 11.731 36.388 10.2 35.966 8.639zM33.503 10.538c-.759.344-1.209 1.149-1.122 2.001l.558 5.459-4.678-1.531 3.653-4.043c.59-.654.712-1.582.304-2.308-.139-.246-.167-.529-.079-.797.115-.35.412-.608.775-.673.059-.011.118-.016.176-.016.342 0 .671.181.945.529C34.237 9.906 33.893 10.361 33.503 10.538zM39.583 5.049c.484-.087 1.008-.055 1.482.102l.626-1.899c-.786-.259-1.643-.319-2.466-.17L39.583 5.049zM38.237 5.669l-1.26-1.554c-.649.527-1.16 1.212-1.477 1.983l1.85.761C37.54 6.397 37.847 5.985 38.237 5.669zM43.032 7.249l1.937-.498c-.208-.807-.62-1.557-1.193-2.168L42.316 5.95C42.66 6.317 42.907 6.766 43.032 7.249zM58.139 5.634c-.4-.729-.922-1.375-1.55-1.921l-1.313 1.51c.45.391.824.854 1.11 1.375L58.139 5.634zM57 9c0 .348-.036.697-.107 1.036l1.957.41C58.95 9.972 59 9.486 59 9c0-.343-.025-.687-.074-1.021l-1.979.29C56.982 8.507 57 8.751 57 9zM54.467 2.447C53.689 2.155 52.872 2.004 52.037 2l-.01 2c.597.003 1.181.11 1.735.319L54.467 2.447zM48.763 5.189c.454-.387.967-.686 1.524-.889l-.686-1.879c-.781.285-1.499.704-2.135 1.244L48.763 5.189zM16 48h14c.552 0 1-.448 1-1v-2h1c.552 0 1-.448 1-1v-8c0-.552-.448-1-1-1H18c-.552 0-1 .448-1 1v2h-1c-.552 0-1 .448-1 1v8C15 47.552 15.448 48 16 48zM19 37h12v2c0-.552-.448-1-1-1H19V37zM17 40h12v6H17V40zM34 34h14c.552 0 1-.448 1-1v-8c0-.552-.448-1-1-1H34c-.552 0-1 .448-1 1v8C33 33.552 33.448 34 34 34zM35 26h12v6H35V26zM44 45h-4c-.552 0-1 .448-1 1v4c0 .552.448 1 1 1h4c.552 0 1-.448 1-1v-4C45 45.448 44.552 45 44 45zM43 49h-2v-2h2V49zM45.174 39.117l-3.532-1.876c-.488-.259-1.093-.074-1.353.414l-1.877 3.532c-.259.488-.074 1.093.414 1.353l3.532 1.877c.146.077.307.117.469.117.098 0 .197-.015.292-.044.254-.078.466-.252.591-.487l1.877-3.533c.124-.234.15-.508.073-.762C45.583 39.454 45.408 39.242 45.174 39.117zM42.414 42.181l-1.766-.938.938-1.766 1.766.938L42.414 42.181z"/></svg>