<svg xmlns="http://www.w3.org/2000/svg" width="96px" height="96px" viewBox="0 0 16 16"><path style="line-height:normal;text-indent:0;text-align:start;text-decoration-line:none;text-decoration-style:solid;text-decoration-color:#fafafa;text-transform:none;block-progression:tb;white-space:normal;isolation:auto;mix-blend-mode:normal;solid-color:#fafafa;solid-opacity:1" d="m 1.8875259,292.89964 c -0.072901,-0.002 -0.1466363,0.0242 -0.2025716,0.077 l -1.32033283,1.24798 c -0.0528839,0.0508 -0.093461,0.11315 -0.0971617,0.18174 -0.004195,0.0778 0.0312993,0.15747 0.0873432,0.21669 l 0.60771486,0.64337 0,1.60094 c 0,0.14452 0.1210926,0.26561 0.2656169,0.26561 l 1.8515667,0 c 0.1445363,0 0.2635496,-0.12109 0.2635496,-0.26561 l 0,-0.28267 0.3302124,-0.0884 c 0.1420003,-0.0381 0.2292589,-0.18821 0.191203,-0.33021 l -0.1105876,-0.41186 0.2961058,-0.27957 c 0.1118949,-0.10588 0.1177748,-0.28659 0.011885,-0.39843 l -0.6252843,-0.66042 -0.058911,-0.062 -0.034623,-0.1297 0,-0.26717 c 0,-0.0953 -0.054535,-0.17586 -0.1312579,-0.22221 l -0.099219,-0.37104 c -0.038054,-0.14199 -0.1882362,-0.22761 -0.3302124,-0.18965 l -0.4154786,0.11111 -0.2816366,-0.29869 c -0.052852,-0.056 -0.12502,-0.0851 -0.1979208,-0.0868 z m -0.01912,0.2682 c 0.00857,-0.008 0.015584,-0.007 0.023771,0.002 l 0.1834514,0.19327 -0.576709,0.15451 z m 0.9828856,0.262 c 0.00465,-0.001 0.00445,-0.003 0.00569,0.002 l 0.069762,0.26148 -1.0598837,0 z m -1.6231566,0.5271 1.7688844,0 0.082682,0.30954 0,2.60088 -1.8515667,0 z m -0.26561691,0.0687 0,0.85524 -0.41599517,-0.43925 c -0.008096,-0.009 -0.007001,-0.0158 0.00155,-0.0238 z m 1.18752451,0.46044 c -0.043694,0.001 -0.083909,0.0242 -0.107487,0.061 l -0.5291667,0.79272 c -0.029335,0.0443 -0.029335,0.10191 0,0.14625 l 0.5291667,0.7953 c 0.052436,0.0788 0.168222,0.0788 0.2206583,0 l 0.5291668,-0.79479 c 0.029564,-0.0444 0.029564,-0.1023 0,-0.14676 l -0.5291667,-0.79272 c -0.024801,-0.0383 -0.067555,-0.0611 -0.1131713,-0.0605 z m 0.00155,0.3731 0.3715536,0.55501 -0.3715536,0.55242 -0.3689697,-0.55242 z m 1.3709759,0.0331 0.3462319,0.36536 c 0.00792,0.008 0.00848,0.0178 0,0.0258 l -0.1927529,0.18087 z m -0.1793174,0.35812 0.2635499,0.98392 c 0.00122,0.005 0.00254,0.005 -0.00206,0.006 l -0.2614829,0.0698 z" color="#fafafa" enable-background="accumulate" font-family="sans-serif" font-weight="400" overflow="visible" transform="matrix(3.77953 0 0 3.77953 -.01 -1107.022)"/></svg>